<svg width="2344" height="1119" viewBox="0 0 2344 1119" fill="none" xmlns="http://www.w3.org/2000/svg">
<g clip-path="url(#clip0_1205_1485)">
<mask id="mask0_1205_1485" style="mask-type:alpha" maskUnits="userSpaceOnUse" x="0" y="0" width="2344" height="1120">
<path d="M2344 0H0V1120H2344V0Z" fill="#D9D9D9"/>
</mask>
<g mask="url(#mask0_1205_1485)">
<path d="M4061.73 -1771.32C4061.73 -1391.84 3986.98 -1016.07 3841.76 -665.47C3696.54 -314.87 3483.68 3.68777 3215.35 272.025C2947.01 540.361 2628.45 753.216 2277.85 898.439C1927.25 1043.66 1551.48 1118.41 1172 1118.41C792.516 1118.41 416.746 1043.66 66.1488 898.439C-284.449 753.216 -603.01 540.36 -871.346 272.024C-1139.68 3.68768 -1352.54 -314.87 -1497.76 -665.47C-1642.98 -1016.07 -1717.73 -1391.84 -1717.73 -1771.32H1172H4061.73Z" fill="black"/>
</g>
</g>
<defs>
<clipPath id="clip0_1205_1485">
<rect width="2344" height="1119" fill="white"/>
</clipPath>
</defs>
</svg>
