<svg width="2344" height="1119" viewBox="0 0 2344 1119" fill="none" xmlns="http://www.w3.org/2000/svg">
<g clip-path="url(#clip0_1205_1497)">
<mask id="mask0_1205_1497" style="mask-type:alpha" maskUnits="userSpaceOnUse" x="0" y="-1" width="2344" height="1120">
<path d="M0 1119L2344 1119L2344 -1L9.79135e-05 -1.0002L0 1119Z" fill="#D9D9D9"/>
</mask>
<g mask="url(#mask0_1205_1497)">
<path d="M-1717.73 2890.32C-1717.73 2510.84 -1642.98 2135.07 -1497.76 1784.47C-1352.54 1433.87 -1139.68 1115.31 -871.349 846.975C-603.009 578.639 -284.449 365.784 66.1506 220.561C416.751 75.3392 792.521 0.594197 1172 0.59423C1551.48 0.594263 1927.25 75.3393 2277.85 220.561C2628.45 365.784 2947.01 578.64 3215.35 846.976C3483.68 1115.31 3696.54 1433.87 3841.76 1784.47C3986.98 2135.07 4061.73 2510.84 4061.73 2890.32L1172 2890.32L-1717.73 2890.32Z" fill="black"/>
</g>
</g>
<defs>
<clipPath id="clip0_1205_1497">
<rect width="2344" height="1119" fill="white" transform="translate(2344 1119) rotate(-180)"/>
</clipPath>
</defs>
</svg>
